<?xml version="1.0" standalone="no"?>
<!DOCTYPE svg PUBLIC "-//W3C//DTD SVG 20010904//EN"
 "http://www.w3.org/TR/2001/REC-SVG-20010904/DTD/svg10.dtd">
<svg version="1.0" xmlns="http://www.w3.org/2000/svg"
 width="512.000000pt" height="512.000000pt" viewBox="0 0 512.000000 512.000000"
 preserveAspectRatio="xMidYMid meet">
<metadata>
Created by potrace 1.14, written by Peter Selinger 2001-2017
</metadata>
<g transform="translate(0.000000,512.000000) scale(0.100000,-0.100000)"
fill="#000000" stroke="none">
<path d="M2490 5078 c-19 -13 -128 -148 -244 -300 -128 -169 -214 -274 -221
-269 -5 5 -153 68 -328 141 -267 111 -325 131 -354 127 -77 -13 -117 -64 -128
-165 -4 -37 -9 -75 -10 -84 -2 -9 -7 -48 -10 -85 -4 -37 -8 -75 -11 -83 -2 -8
-6 -35 -9 -60 -24 -203 -38 -306 -44 -312 -3 -4 -26 -9 -51 -12 -25 -3 -101
-12 -170 -21 -69 -9 -143 -18 -165 -20 -22 -3 -57 -7 -77 -10 -21 -3 -57 -7
-80 -10 -49 -6 -114 -16 -143 -21 -33 -6 -69 -38 -88 -77 -35 -70 3 -162 78
-187 29 -9 157 -6 175 5 3 2 39 6 80 10 41 3 82 8 90 10 8 2 40 7 70 10 276
30 458 59 485 75 58 36 66 66 100 375 3 28 8 68 11 90 8 54 11 79 19 153 4 34
12 65 17 68 5 4 28 -2 51 -12 23 -9 60 -25 82 -35 443 -190 467 -198 530 -171
34 15 36 17 249 301 88 116 162 211 166 211 3 0 85 -105 182 -232 97 -128 186
-243 197 -255 26 -28 85 -47 119 -38 15 4 149 58 299 121 149 63 276 114 280
114 5 0 15 -50 22 -112 7 -61 14 -120 16 -132 4 -21 11 -76 19 -151 28 -237
39 -268 97 -297 19 -9 54 -20 79 -23 25 -3 79 -9 120 -15 41 -5 98 -12 125
-15 81 -10 116 -15 195 -25 41 -5 98 -12 125 -15 28 -3 61 -7 75 -10 77 -13
145 -15 175 -5 75 25 113 117 78 187 -31 63 -64 78 -223 97 -24 3 -103 13
-175 22 -71 8 -140 17 -152 19 -13 2 -67 9 -120 15 -54 6 -101 15 -105 18 -3
4 -11 50 -18 102 -6 52 -13 109 -15 125 -7 47 -24 185 -30 235 -3 25 -7 56
-10 70 -2 14 -7 52 -10 85 -10 103 -52 159 -127 171 -30 5 -70 -8 -244 -81
-115 -48 -233 -98 -262 -111 -29 -13 -55 -24 -58 -24 -3 0 -30 -11 -60 -25
-30 -14 -60 -25 -67 -25 -7 0 -75 85 -152 188 -77 102 -147 194 -155 204 -8 9
-40 50 -70 92 -77 105 -148 132 -220 84z"/>
<path d="M1940 3882 c-126 -64 -88 -250 53 -258 53 -3 98 21 127 68 69 113
-61 251 -180 190z"/>
<path d="M2495 3881 c-32 -19 -71 -59 -69 -70 1 -3 -1 -12 -4 -19 -7 -20 5
-82 23 -108 39 -60 129 -80 187 -41 92 62 85 190 -13 239 -44 23 -86 23 -124
-1z"/>
<path d="M3060 3883 c-43 -22 -80 -76 -80 -117 0 -17 8 -46 18 -65 67 -133
266 -83 258 64 -6 102 -108 163 -196 118z"/>
<path d="M100 3322 c-19 -9 -45 -32 -57 -51 l-23 -34 0 -671 c0 -747 -3 -715
68 -763 31 -20 44 -22 230 -23 222 -1 279 7 369 51 273 133 336 506 122 728
-35 36 -40 46 -30 60 23 32 59 117 70 169 51 238 -97 475 -334 537 -89 23
-368 21 -415 -3z m367 -277 c21 -9 46 -23 56 -33 60 -54 71 -159 24 -230 -36
-56 -76 -74 -169 -80 l-78 -5 0 182 0 181 65 0 c36 0 82 -7 102 -15z m90 -644
c82 -38 122 -145 87 -231 -36 -85 -89 -109 -236 -110 l-108 0 0 180 0 180 108
0 c83 0 116 -5 149 -19z"/>
<path d="M1300 3323 c-19 -10 -45 -33 -57 -52 l-23 -34 0 -671 c0 -619 1 -674
18 -705 37 -75 128 -102 192 -59 73 49 70 16 70 758 0 613 -1 668 -18 699 -35
70 -116 98 -182 64z"/>
<path d="M1875 3333 c-11 -3 -31 -15 -43 -26 -54 -49 -52 -26 -52 -744 0 -616
1 -671 18 -703 48 -96 180 -103 239 -13 16 24 19 65 23 388 l5 360 185 -370
c102 -203 195 -382 208 -397 62 -73 179 -56 224 33 17 31 18 86 18 697 0 718
1 706 -55 750 -57 45 -137 37 -189 -17 -16 -16 -27 -31 -26 -33 1 -1 -1 -10
-4 -18 -3 -8 -7 -172 -8 -365 l-3 -350 -187 372 c-102 204 -192 380 -200 391
-28 41 -93 59 -153 45z"/>
<path d="M3340 3329 c-162 -32 -312 -183 -350 -352 -17 -76 -13 -780 5 -846
41 -156 149 -273 301 -328 75 -26 222 -24 299 5 151 58 254 173 290 323 10 45
15 120 15 259 0 166 -3 200 -18 229 -31 62 -61 76 -174 79 -55 2 -115 1 -134
-3 -36 -6 -108 -61 -99 -75 3 -5 1 -11 -5 -15 -14 -9 -12 -60 4 -99 18 -43 59
-75 108 -82 l38 -7 0 -96 c0 -153 -28 -213 -114 -246 -82 -31 -166 -5 -214 67
l-27 42 -3 363 c-3 342 -2 366 17 408 39 88 155 129 243 84 20 -10 40 -23 43
-29 14 -23 81 -47 119 -43 48 6 78 27 104 73 17 31 20 49 14 111 -3 28 -92
107 -155 138 -102 49 -196 62 -307 40z"/>
<path d="M4514 3320 c-114 -31 -196 -93 -261 -196 -67 -106 -67 -109 -71 -538
-2 -256 1 -406 8 -440 38 -177 189 -325 365 -357 57 -11 171 -7 211 7 118 40
228 130 279 227 51 97 54 130 54 547 0 376 -1 388 -23 452 -84 239 -321 365
-562 298z m227 -295 c26 -17 48 -42 60 -70 19 -42 20 -66 17 -408 l-3 -363
-27 -42 c-36 -54 -79 -76 -149 -76 -71 -1 -132 36 -160 97 -17 39 -19 70 -19
396 0 336 1 357 20 397 25 51 47 72 97 90 53 20 115 12 164 -21z"/>
<path d="M421 1482 c-94 -47 -105 -173 -21 -234 25 -18 90 -33 177 -42 55 -6
375 -45 413 -51 14 -2 51 -7 83 -11 32 -3 60 -12 63 -18 2 -6 15 -101 28 -211
14 -110 27 -216 30 -235 2 -19 7 -60 11 -90 17 -154 32 -194 81 -227 57 -37
98 -26 429 115 171 73 315 132 320 131 6 0 87 -102 180 -226 252 -336 262
-346 319 -357 82 -16 108 5 276 231 80 107 155 206 168 221 12 15 39 51 60 79
20 29 41 53 47 53 5 0 149 -59 320 -132 245 -104 320 -132 357 -132 83 -1 132
54 143 164 3 36 8 72 10 80 2 8 7 42 10 75 3 33 8 76 11 95 10 76 14 107 19
155 3 28 8 61 10 75 2 14 7 50 11 80 3 30 8 58 10 62 2 3 32 9 66 13 35 4 74
8 88 10 56 8 392 51 470 60 110 13 163 59 164 144 1 60 -23 97 -79 125 -38 19
-39 19 -264 -9 -124 -15 -233 -29 -241 -30 -8 -2 -44 -6 -80 -10 -36 -3 -92
-10 -125 -15 -33 -5 -85 -12 -115 -15 -99 -12 -144 -55 -155 -151 -3 -27 -7
-62 -10 -79 -2 -16 -7 -57 -10 -90 -3 -33 -8 -71 -10 -85 -3 -14 -7 -47 -10
-75 -9 -80 -25 -198 -30 -222 -5 -21 -5 -21 -42 -3 -21 10 -148 64 -283 121
-326 138 -332 137 -450 -20 -36 -47 -119 -157 -185 -244 -65 -86 -121 -157
-125 -157 -4 0 -90 110 -191 245 -198 263 -224 288 -296 279 -19 -2 -151 -54
-294 -114 -143 -60 -270 -112 -283 -116 -22 -5 -23 -3 -40 148 -10 84 -20 164
-22 178 -12 100 -16 128 -19 150 -2 14 -7 50 -10 80 -15 117 -51 143 -230 165
-72 8 -146 17 -165 20 -196 26 -517 65 -534 65 -12 0 -36 -8 -55 -18z"/>
<path d="M1929 1477 c-119 -79 -64 -261 76 -253 81 5 135 64 131 143 -3 52
-29 91 -77 115 -46 24 -89 22 -130 -5z"/>
<path d="M2495 1482 c-32 -21 -71 -60 -69 -71 1 -3 -1 -12 -4 -19 -2 -7 -2
-29 1 -48 22 -131 181 -165 254 -55 27 41 29 84 5 130 -36 71 -127 101 -187
63z"/>
<path d="M3055 1482 c-32 -21 -71 -60 -69 -71 1 -3 -1 -12 -4 -19 -2 -7 -2
-29 1 -48 22 -131 181 -165 254 -55 27 41 29 84 5 130 -36 71 -127 101 -187
63z"/>
</g>
</svg>
